<?xml version="1.0" encoding="UTF-8"?>
<svg id="Layer_1" data-name="Layer 1" xmlns="http://www.w3.org/2000/svg" width="517.66" height="380" viewBox="0 0 517.66 380">
  <g id="Streger">
    <line x1="170.95" y1="291.64" x2="161.75" y2="294.06" style="fill: none; stroke: #390000; stroke-linejoin: round; stroke-width: 5px;"/>
    <path d="M202.29,291.64c-.56,15.86-6.82,23.93-6.82,23.93-19.68,20.4-28.71,1.25-28.71,1.25" style="fill: none; stroke: #390000; stroke-linejoin: round; stroke-width: 5px;"/>
    <g id="nose">
      <path d="M183.28,219.61c-11.59-7.97,34.11-23.48,45.91-3.93,8.33,13.8-29.5,24.44-29.5,24.44,0,0-14.65-6.87-16.08-18.9" style="fill: #131313; stroke: #390000; stroke-linejoin: round; stroke-width: 5px;"/>
      <path d="M209.79,238.47s-3.18-27.79,10.95-5.29" style="stroke: #390000; stroke-linejoin: round;"/>
      <path d="M189.33,228.9s9.85-20.77,4.44,5.98" style="stroke: #390000; stroke-linejoin: round;"/>
    </g>
    <path d="M190.7,319.94s65.43,20.59,84.19-29.95c18.77-50.53-43.99-68.77-43.99-68.77,0,0-.25,11.91-30.07,20.25l-9.78,39.79,12.55,11.59s-.81,18.48-12.9,27.08Z" style="fill: #6c3506; stroke: #390000; stroke-linejoin: round; stroke-width: 5px;"/>
    <g id="body_outline" data-name="body outline">
      <path d="M374,228.05s40.54,31.01,12.14,63.59" style="fill: none; stroke: #390000; stroke-linejoin: round; stroke-width: 5px;"/>
      <path d="M272.8,324.09s31.29,5.98,57.08-10.87c25.79-16.85,56.25-21.57,56.25-21.57,22.03-10.71,25.88,8.37,25.88,8.37,15.04,54.66-19.93,48.87-19.93,48.87-5.11-2.23-68.38,2.6-81.48,18.87" style="fill: none; stroke: #390000; stroke-linejoin: round; stroke-width: 5px;"/>
      <path d="M506.46,380c0-39.02-91.22-52.89-91.08-63.1" style="fill: none; stroke: #390000; stroke-linejoin: round; stroke-width: 5px;"/>
      <path d="M97.11,210.58s-17.95,20.82-9.85,39.69c3.68,8.58,12.75,16.75,31.33,22.38" style="fill: none; stroke: #390000; stroke-linejoin: round; stroke-width: 5px;"/>
      <path d="M33.66,380c0-24.71,25.97-66.59,25.97-66.59" style="fill: none; stroke: #390000; stroke-linejoin: round; stroke-width: 5px;"/>
      <path d="M122.32,348.88s-69.42-2.93-70.67-67.62c0,0-1.38-43.67,38.53-25.85" style="fill: none; stroke: #390000; stroke-linejoin: round; stroke-width: 5px;"/>
      <line x1="270.78" y1="107.95" x2="283.19" y2="107.95" style="fill: none; stroke: #390000; stroke-linejoin: round; stroke-width: 5px;"/>
    </g>
    <path d="M178.99,324.97c-.27-25.69,12-43.75,12-43.75l23.05,21.29" style="fill: none; stroke: #390000; stroke-linejoin: round; stroke-width: 5px;"/>
    <path d="M210.53,208.01c1.01.48-10.72,14.87-9.51,32.64l-9.98,40.62-20.1,10.38c-8.57,11.45-4.2,25.17-4.2,25.17-22.52-9.27-23.63-15.02-33.35-34.45-9.72-19.43,18.16-43.85,18.16-43.85,0,0,14.08-16.79,30.5-17.99-.7-4.03,10.26,22.24,18.75,20.95,7.46-1.13,0,0,0,0" style="fill: #6c3506; stroke: #390000; stroke-linejoin: round; stroke-width: 5px;"/>
  </g>
  <g id="Curlere">
    <path d="M268.17,63.25s-21.59-23.32,0-48.36c21.59-25.04,55.7,8.2,55.7,8.2,0,0,19.86,22.45-8.2,45.34-28.06,22.88-47.49-5.18-47.49-5.18Z" style="fill: #ff7cae; stroke: #390000; stroke-linejoin: round; stroke-width: 5px;"/>
    <path d="M129.14,112.03s-3.85-49.56,37.67-50.89c41.52-1.33,43.78,34.17,43.78,34.17,0,0,2.62,34.61-33.77,37.72-36.39,3.11-45.41-17.46-45.41-17.46" style="fill: #ff7cae; stroke: #390000; stroke-linejoin: round; stroke-width: 5px;"/>
    <path d="M210.63,86.55s2.63-29.73,34.29-28.57c31.66,1.16,31.66,32.82,31.66,32.82,0,0-2.7,30.5-30.5,29.35-27.8-1.16-35.45-18.92-35.45-18.92v-14.67Z" style="fill: #ff7cae; stroke: #390000; stroke-linejoin: round; stroke-width: 5px;"/>
    <path d="M190.75,63.77s-24.58-32.05,1.67-49.42c26.24-17.38,42.18,2.32,42.18,2.32,0,0,19.59,15.38,2.6,41.28s-46.45,5.82-46.45,5.82Z" style="fill: #ff7cae; stroke: #390000; stroke-linejoin: round; stroke-width: 5px;"/>
    <path d="M292.42,80.95s-20.65,23.32,0,41.02c20.65,17.7,46.99,0,46.99,0,0,0,21.59-21.59,0-41.02-21.59-19.43-46.99,0-46.99,0Z" style="fill: #ff7cae; stroke: #390000; stroke-linejoin: round; stroke-width: 5px;"/>
    <path d="M184.18,75.5s-29.73-12.95-41.25,13.56c0,0-5.7,19.32,14.93,27.3,20.63,7.99,29.85-11.82,29.85-11.82,0,0,1.72-24.99-22.75-15.48,0,0-12.95,6.8.01,13.85" style="fill: #ff7cae; stroke: #390000; stroke-linejoin: round; stroke-width: 3px;"/>
    <path d="M221.36,23.67s-24.42-9.69-26.6,17.82c0,0-.18,20.72,20.4,12.58,0,0,12.44-3.29,8.1-15.08-4.34-11.79-13.73.2-13.73.2" style="fill: #ff7cae; stroke: #390000; stroke-linejoin: round; stroke-width: 3px;"/>
    <path d="M256.1,75.5s-24.76-13.3-31.92,11.4c-7.16,24.7,23.51,21.44,23.51,21.44,0,0,19.54-2.71,13.03-16.28-6.51-13.57-21.98-.27-21.98-.27" style="fill: #ff7cae; stroke: #390000; stroke-linejoin: round; stroke-width: 3px;"/>
    <path d="M312.55,43.21s5.16-25.51-25.51-23.61c0,0-22,4.88-10.46,30.12,0,0,9.92,16.55,19.69,6.24,9.77-10.31-4.08-19.26-4.08-19.26,0,0-5.69-3.83-6.5,2.29" style="fill: #ff7cae; stroke: #390000; stroke-linejoin: round; stroke-width: 3px;"/>
    <path d="M301.42,116.36s24.7,13.69,33.38-6.39c8.68-20.08-12.21-25.24-12.21-25.24,0,0-20.95-6.76-24.72,12.49,0,0,.03,16.28,16.85,11.26,16.83-5.03,2.67-13.18,2.67-13.18" style="fill: #ff7cae; stroke: #390000; stroke-linejoin: round; stroke-width: 3px;"/>
  </g>
  <g id="eyespots">
    <path d="M276.67,255.14c69.77,17.7,51.99-58.47,51.99-58.47-9.47-51.55-56.8-34.63-56.8-34.63-49.29,30.36-18.93,69.26-18.93,69.26l23.75,23.84Z" style="fill: #b47d4f; stroke: #390000; stroke-linejoin: round;"/>
    <path d="M116.84,173.62s31.79-30.08,55.84-26.64c24.06,3.44,34.37,26.64,34.37,26.64-.11.16,7.89,16.27-3.7,31.07,0,0-24.87,5.88-22.3,13.62-9.7.08-25.48,12.37-32.77,21.47-13.61,16.98-42.05-14.32-41.04-28.45,0,0-9.19-23.64,9.59-37.71Z" style="fill: #b47d4f; stroke: #390000; stroke-linejoin: round;"/>
  </g>
  <g id="eyes">
    <path d="M135.33,156.58c2.33-1.87,5.05-3.19,7.97-3.84,11.9-2.65,43.59-6.63,41.02,27.07-2.94,38.54-50.59,36.89-55.32,28.61,0,0-2.45-2.46-4.15-5.14-4.89-7.71-15.18-26.06,10.48-46.69Z" style="fill: #fff; stroke: #390000; stroke-linejoin: round; stroke-width: 3px;"/>
    <path d="M327.94,199.36s-13.79-25.3-37.38-20.08c-22.85,5.05-28.27,22.78-28.49,24.02,0,0-9.63,27.25,15.34,35.88,25.55,8.83,46.27-12.91,37.8-5.7.09-.12,17.79-9.8,12.73-34.12Z" style="fill: #fff; stroke: #390000; stroke-linejoin: round; stroke-width: 3px;"/>
  </g>
  <g id="ears">
    <path d="M129.14,112.03c-67.25,1.97-68.25,69.31-68.25,69.31-15.22,28.45-58.55,70.46,11.58,33.74l31.76-5.62s-4.92-20.96,12.61-35.84c0,0-4.95-25.19,16.76-44.47,2.38-2.12,2.91-5.64,1.19-8.32l-5.64-8.79Z" style="fill: #6c3506; stroke: #390000; stroke-linejoin: round; stroke-width: 5px;"/>
    <path d="M345.18,116.85c-5.77,3.62-6.18,9.38-6.41,16.18-.78,23.4.66,77.01,28.66,92.18,36.15,19.58,46.54,6.75,46.54,6.75,0,0,10.38-9.68-13.46-23.42,0,0,20.84-61.66-52.16-92.17l-3.17.49Z" style="fill: #6c3506; stroke: #390000; stroke-linejoin: round; stroke-width: 5px;"/>
  </g>
  <g id="pupiller">
    <path d="M323.39,193.63s-21.62-19.29-39.48,6c-17.85,25.29,13.74,33.45,13.74,33.45,0,0,20.71,3.11,27.86-13.67,7.15-16.78-2.12-25.78-2.12-25.78Z"/>
    <path d="M139.46,157.51c-3.23-.31-20.5,11.33-18.13,27.4,2.32,15.75,27.62,11.99,27.62,11.99,0,0,20.66-5.35,23.33-26.17,2.77-21.59-31.77-14.84-32.82-13.22Z"/>
  </g>
  <path d="M200.88,242c-14.26-7.09-17.73-21.44-17.54-21.86-25.8,5.46-31.72,18.9-31.72,18.9" style="fill: none; stroke: #390000; stroke-linejoin: round; stroke-width: 5px;"/>
  <g id="eye_shine" data-name="eye shine">
    <path d="M146.51,158.96s-4.09-.2-3.91,4.35c.11-.12-.17,3.93,3.91,3.77,0,0,4.46.61,4.4-4.05.14.4.24-4.53-4.4-4.07Z" style="fill: #fff;"/>
    <path d="M304.24,188.15s-4.09-.2-3.91,4.35c.11-.12-.17,3.93,3.91,3.77,0,0,4.46.61,4.4-4.05.14.4.24-4.53-4.4-4.07Z" style="fill: #fff;"/>
  </g>
  <line x1="156.77" y1="295.31" x2="171" y2="292.17" style="fill: #6c3506; stroke: #390000; stroke-linejoin: round; stroke-width: 5px;"/>
  <g id="tongue_color" data-name="tongue color">
    <path d="M185.54,286.32l-14.53,7.42s-11.34,23.54,5.55,29.3c0,0-.15-17.2,8.98-36.72Z" style="fill: #e02229;"/>
    <path d="M191.6,285.2s-10.63,19.16-10.03,37.84c0,0,17.63-2.35,18.49-29.66l-8.46-8.18Z" style="fill: #e02229;"/>
  </g>
  <g id="body_color_outline" data-name="body color outline">
    <path d="M33.66,380h472.8s-4.74-33.43-70.15-50.61l-18.47-6.77s1.23,20.17-11.88,26.22c0,0-7.73,4.41-14.68,2.24s-34.63,2.35-34.63,2.35c0,0-36.21,4.73-42.9,14.84,0,0-2.55,1.37-3.25-.59s.83-3.4.83-3.4c0,0,9.24-8.17,30.3-12.17,0,0,29.23-6.63,49.79-5.06,20.56,1.56,21.34-14.67,21.34-14.67,0,0,4.27-10.84-4.75-36,0,0-4.34-10.58-21.68-2.26,0,0-26.19,3.47-51.7,18.74,0,0-10.2,8.87-29.99,13.35,0,0-14.26,3.06-28.87.71,0,0-2.58-.08-2.64-2.8,0,0,.59-2.01,3.67-1.18,0,0,11.66,1.3,19.95-.18,0,0,14.91-.46,30.5-10,15.6-9.54,21.19-11.47,21.19-11.47,0,0,21.01-9.02,36.7-11.04,0,0,18.5-16.45,3.65-41.57,0,0-3.69-10.47-16.67-20.1,0,0-21.77-2.11-31.84-44.87,0,0-5.73-30.21-3.4-58.13,0,0-16.75,9.01-30,5.3,0,0-16.96-1.77-24.74-20.5h-11.35s-7.51,13.43-26.7,11.49c0,0-19.77.25-32.56-15.16,0,0-12.69,47.27-73.81,19.58,0,0-.81,4.03-4.71,5.66,0,0-17.98,17.97-13.85,39.55l3.33-2.81s11.02-19.16,29.76-18.41c0,0,23.99-14.27,47.39,12.23,0,0,20.03,19.59,3.66,42.19,0,0,25.83-2.86,29.31,15.45,0,0,11.46,3.67,16.82,7.44,0,0-14.04-25.6,1.32-46.44,15.36-20.84,25.87-20.41,25.87-20.41,0,0,24.33-7.62,40.33,10.04s13.68,52.93,13.68,52.93c0,0-1.3,30.76-29.14,33.78,0,0-12.04,1.6-24.87-2.33,0,0,14.43,36.57-20.27,61.39,0,0-8.96,8.94-37.12,10.01,0,0-13.43-.16-28.01-3.5,0,0-15.98,12.48-26.18-4.11,0,0-15.98-5.98-22.83-15.32s-12.02-22.89-12.02-22.89c0,0-6.28-13.3,12.73-36.03,0,0-9.11,1.3-15.6-3.71s-11.12-9.91-11.12-9.91c0,0-10.04-10.53-9-19.75l-.87-1.44s-5.73,1.05-7.64,2.7-11.13,15.88-11.07,24.31c0,0-2.64,14.9,10.89,24.16,0,0,6.3,5.45,16.94,8.73,0,0,3.82,1.02,2.5,3.2s-3.75,1.13-3.75,1.13c0,0-15.82-4.4-25.54-16.41,0,0-20.35-10.11-28.89,2.49s-9.87,39.35,7.27,60.95c0,0,13.39,18.29,40.32,23.76,0,0,5.59,1.71,11.08,2.11,0,0,3.71-.48,3.2,2.35s-3.35,1.98-3.35,1.98c0,0-19.39-2.28-34.82-11.23-15.43-8.94-23.98-22.21-23.98-22.21,0,0-18.09,22.81-24.62,55.68" style="fill: #cfb298;"/>
  </g>
</svg>